<svg width="30" height="29" viewBox="0 0 30 29" fill="none" xmlns="http://www.w3.org/2000/svg">
<path d="M14.6733 28.1208C14.6287 28.1017 14.5631 28.0751 14.5275 28.0616C14.4451 28.0304 14.3312 27.9827 14.1872 27.9191C14.1249 27.8915 13.9936 27.8371 13.8956 27.7981C13.7391 27.7359 13.2587 27.5225 12.6497 27.2447C12.3685 27.1164 10.64 26.2399 10.4122 26.1101C10.3052 26.0492 10.1594 25.9653 10.0881 25.9237C10.0168 25.8821 9.87832 25.8034 9.7803 25.7488C9.60312 25.6501 9.53889 25.6107 8.85678 25.1833C6.59457 23.7657 4.52128 21.9071 3.13749 20.0565C2.41651 19.0922 1.72371 17.9167 1.32339 16.9784C1.26551 16.8428 1.18339 16.6537 1.14089 16.5582C1.0984 16.4627 1.06363 16.3652 1.06363 16.3417C1.06363 16.3181 1.05396 16.289 1.04213 16.277C0.941347 16.1747 0.419066 14.4108 0.315011 13.8214C0.297452 13.7219 0.268887 13.5665 0.251538 13.476C-0.00850818 12.1205 -0.0778091 10.0683 0.0949469 8.83906C0.11274 8.71245 0.140077 8.53486 0.155692 8.44443C0.171307 8.35399 0.201997 8.1764 0.223892 8.04979C0.269794 7.78434 0.454601 7.02927 0.530998 6.79504C0.74186 6.14854 0.832288 5.91833 1.09739 5.35311C2.01361 3.39962 3.63523 1.82022 5.63259 0.935984C6.45854 0.570338 6.84665 0.415811 7.13937 0.336068C8.12398 0.0678462 8.61237 -0.000682432 9.53452 7.7054e-06C10.3677 0.000431103 10.775 0.0492499 11.5949 0.245973C12.6095 0.489418 13.8386 1.10252 14.7029 1.79629C14.8528 1.91666 14.9853 2.01514 14.9973 2.01514C15.0093 2.01514 15.1391 1.91925 15.2857 1.80205C16.3579 0.944727 17.6931 0.342144 19.0316 0.111507C19.5718 0.0184398 19.8016 0.000494612 20.4601 7.7054e-06C21.3823 -0.00083909 21.8707 0.0678462 22.8553 0.336068C23.2404 0.440974 24.3634 0.914272 24.9098 1.20192C26.1855 1.87356 27.2666 2.81588 28.1066 3.98832C28.2207 4.14762 28.317 4.29811 28.5904 4.74471C28.7254 4.9651 29.1105 5.79399 29.2434 6.1499C29.9541 8.05406 30.1659 10.2311 29.8712 12.6046C29.822 13.0006 29.7786 13.3066 29.7616 13.3774C29.7528 13.4135 29.7287 13.5393 29.7079 13.6569C29.5764 14.4011 29.1332 15.9502 28.9623 16.2627C28.9451 16.2941 28.9311 16.3344 28.9311 16.3522C28.9311 16.37 28.8963 16.4627 28.8538 16.5582C28.8113 16.6537 28.7292 16.8428 28.6713 16.9784C28.0969 18.3248 27.0578 19.9271 25.952 21.1715C25.5588 21.6139 24.5512 22.6081 24.1353 22.964C24.0194 23.0631 23.9173 23.1529 23.9084 23.1634C23.8771 23.2005 23.1112 23.8076 22.7974 24.044C22.4507 24.3052 21.3679 25.0547 21.1865 25.159C21.1241 25.1948 20.9491 25.3018 20.7977 25.3966C20.3549 25.6739 19.727 26.037 19.2747 26.2774C18.2345 26.8303 17.3572 27.2563 16.4717 27.6386C16.2222 27.7464 15.9741 27.8549 15.9204 27.8799C15.8024 27.9348 15.6957 27.9776 15.4187 28.0811C15.191 28.1663 14.8254 28.1857 14.6733 28.1208ZM10.4188 19.5382C10.6147 19.4638 10.926 19.1844 10.999 19.0174C11.4002 18.0992 11.902 17.4843 12.6804 16.9576C13.2057 16.6021 13.8836 16.3684 14.6328 16.2845C15.4927 16.1881 16.5807 16.4612 17.3142 16.9576C18.0139 17.4311 18.5025 17.9932 18.8822 18.7617C19.0607 19.123 19.1986 19.2869 19.4132 19.3931C20.001 19.684 20.6238 19.47 20.8897 18.8859C20.9576 18.7368 20.972 18.6558 20.9718 18.4254C20.9715 18.1589 20.9644 18.1313 20.8193 17.8335C20.5605 17.3023 20.3795 17.013 20.017 16.5509C19.6003 16.0198 18.8727 15.3609 18.422 15.1066C18.2171 14.991 18.1405 14.9338 18.1405 14.8962C18.1405 14.8765 18.1829 14.8153 18.2346 14.7602C18.5253 14.4505 18.9265 13.7385 19.0787 13.2623C19.3539 12.401 19.3537 11.3896 19.0783 10.5327C18.978 10.2207 18.7729 9.7994 18.566 9.48035C18.2414 8.97999 17.6203 8.3869 17.1522 8.1304C17.0453 8.07181 16.9432 8.01324 16.9254 8.00025C16.9076 7.98726 16.7399 7.91643 16.5527 7.84286C14.6642 7.10037 12.5594 7.78426 11.4118 9.51323C10.9648 10.1866 10.7201 11.0302 10.7201 11.8975C10.7201 12.938 11.0275 13.8184 11.6811 14.65C11.7763 14.7711 11.8541 14.8838 11.8541 14.9004C11.8541 14.917 11.6906 15.0398 11.4907 15.1734C10.4829 15.847 9.78691 16.6318 9.22657 17.7264C8.97953 18.209 8.90784 18.5631 9.00716 18.8103C9.10919 19.0643 9.14734 19.1329 9.25187 19.2503C9.54873 19.5838 10.0034 19.696 10.4188 19.5382ZM14.6247 14.0467C14.0676 13.9139 13.6818 13.6854 13.3599 13.2977C12.7524 12.566 12.6964 11.4796 13.226 10.6973C13.6374 10.0896 14.2774 9.74578 14.9973 9.74578C15.9302 9.74578 16.7149 10.3217 17.0329 11.2398C17.3102 12.0403 17.0157 13.0438 16.3421 13.5938C15.8702 13.979 15.1439 14.1706 14.6247 14.0467Z" fill="white"/>
</svg>
