<svg width="390" height="844" viewBox="0 0 390 844" fill="none" xmlns="http://www.w3.org/2000/svg">
<g clip-path="url(#clip0_168_2282)">
<rect width="390" height="844" fill="#F5F5F5"/>
<mask id="path-1-outside-1_168_2282" maskUnits="userSpaceOnUse" x="-63" y="248" width="1339" height="430" fill="black">
<rect fill="white" x="-63" y="248" width="1339" height="430"/>
<path d="M11.1494 662.642C-7.94506 661.388 -27.6499 656.797 -45.3367 649.482L-48 648.381V631.103V613.825L-42.3976 616.491C-26.1115 624.242 -11.513 628.541 6.18958 630.801C13.4294 631.726 31.1554 631.728 38.7035 630.805C75.1785 626.344 109.382 610.373 142.307 582.428C148.626 577.065 160.842 565.129 167.01 558.292C180.607 543.218 193.08 525.87 203.059 508.153C206.086 502.778 206.135 502.167 203.659 500.654C199.309 497.995 159.337 466.701 143.966 453.921C117.454 431.878 95.6275 410.738 79.1226 391.118C70.3232 380.658 59.5327 365.615 53.3314 355.165C36.3728 326.585 26.8462 296.775 25.5991 268.384L25.3626 263H41.1681H56.9735L57.2202 268.019C57.6934 277.661 58.7683 285.352 60.7953 293.606C67.609 321.349 83.8759 349.201 111.033 379.62C116.464 385.704 137.218 406.319 144.144 412.509C156.988 423.99 169.885 434.831 184.74 446.633C196.146 455.695 218.357 472.903 219.489 473.554C220.01 473.854 220.684 474.006 220.987 473.891C221.896 473.544 227.281 461.98 231.476 451.365C258.151 383.871 254.425 316.511 221.302 267.39L218.342 263H237.018H255.694L258.234 267.837C267.41 285.306 272.979 300.84 276.717 319.394C279.196 331.701 280.364 342.774 280.682 356.99C281.608 398.461 271.447 442.283 251.006 484.976C248.786 489.613 248.422 490.634 248.701 491.445C248.978 492.248 250.622 493.2 258.585 497.168C294.672 515.149 325.935 525.804 353.555 529.534C358.712 530.23 361.291 530.354 370.822 530.361C382.282 530.367 385.038 530.156 392.682 528.675C408.539 525.602 423.623 518.425 437.404 507.394C442.377 503.414 450.551 495.568 455.667 489.865C465.888 478.471 473.197 468.83 493.583 439.847C518.531 404.378 532.025 387.555 549.369 370.3C565.096 354.653 579.488 343.281 595.925 333.513C621.831 318.118 644.422 309.821 668.223 306.96C675.173 306.124 688.779 306.121 695.777 306.954C715.346 309.281 734.71 315.948 756.764 327.953C766.101 333.036 777.406 339.865 794.982 351.041C827.072 371.445 836.749 377.134 853.57 385.482C869.685 393.479 884.245 399.16 899.31 403.329C902.745 404.279 906.795 405.446 908.311 405.922C914.519 407.872 926.837 409.628 943.213 410.898C952.566 411.623 976.777 411.523 982.34 410.735C990.071 409.641 994.318 408.247 996.116 406.212C996.738 405.508 997.22 404.549 997.22 404.013C997.22 403.49 995.169 399.184 992.664 394.444C973.5 358.186 958.676 325.94 947.255 295.669C944.215 287.613 936.245 264.312 936.237 263.457C936.233 263.099 939.768 263.001 952.698 263.001H969.163L969.82 265.1C973.93 278.235 984.163 304.067 993.319 324.422C1000.63 340.67 1016.45 372.821 1023.36 385.461C1025.49 389.358 1025.88 389.393 1028.71 385.938C1041.51 370.3 1048.91 351.799 1051.67 328.52C1052.39 322.447 1052.27 303.304 1051.47 296.276C1050.37 286.564 1047.43 270.952 1045.54 264.735L1045.01 263.001H1061.64H1078.26L1079.43 268.932C1082.31 283.472 1083.2 291.925 1083.45 306.818C1083.7 322.227 1083.07 330.815 1080.76 343.303C1075.9 369.563 1064.32 394.063 1047.57 413.508C1046.04 415.282 1044.32 417.293 1043.75 417.976L1042.7 419.219L1045.92 424.241C1075.93 471.111 1101.04 496.531 1123.25 502.51C1127.32 503.604 1134.99 503.705 1138.66 502.713C1144.41 501.157 1149.98 497.718 1154.86 492.714C1162.34 485.041 1166.66 477.311 1172.37 461.383C1179.87 440.49 1184.36 421.273 1191.74 378.526C1197.86 343.065 1200.72 329.159 1205.34 312.473C1209.76 296.502 1214.39 284.183 1221.23 270.21L1224.76 263.001H1242.88C1252.85 263.001 1261 263.049 1261 263.108C1261 263.167 1259.58 265.671 1257.84 268.674C1245.76 289.568 1236.9 314.074 1229.6 346.771C1226.87 359.015 1225.17 367.781 1220.61 393.323C1213.75 431.689 1210.46 446.909 1204.93 465.763C1201.16 478.603 1196.26 489.337 1189.67 499.162C1175.93 519.662 1157.06 532.414 1136.7 534.947C1131.62 535.578 1121.93 535.21 1117.17 534.205C1107.06 532.074 1097.15 527.449 1087.98 520.589C1079.85 514.498 1065.95 501.594 1057.81 492.57C1044.74 478.075 1033.39 462.723 1018.02 438.743C1016.15 435.819 1014.61 434.559 1012.93 434.557C1012.38 434.556 1009.65 435.28 1006.87 436.165C992.211 440.829 979.431 442.858 962.497 443.207C943.749 443.594 926.192 441.624 902.797 436.51C880.799 431.702 864.687 425.986 842.729 415.199C826.775 407.362 814.527 400.231 787.988 383.327C760.415 365.765 750.776 360.025 738.574 353.902C722.446 345.809 708.126 341.011 693.753 338.884C686.345 337.787 673.594 337.696 666.75 338.691C646.943 341.571 628.809 348.917 608.656 362.226C595.878 370.666 580.671 382.86 570.298 392.986C564.479 398.667 547.364 420.535 529.909 444.593C525.394 450.817 518.958 459.686 515.609 464.304C493.924 494.194 479.509 511.341 464.87 524.655C441.021 546.346 415.976 557.784 386.008 560.673C374.109 561.819 356.582 561.211 342.714 559.17C308.238 554.097 275.476 542.739 242.784 524.529C234.778 520.069 233.564 519.705 231.918 521.272C231.317 521.844 230.143 523.547 229.309 525.057C226.399 530.323 220.421 539.91 215.866 546.613C191.205 582.902 159.944 612.724 124.745 633.537C117.284 637.948 103.075 645.019 95.0943 648.291C68.0011 659.399 38.5094 664.44 11.1494 662.642Z"/>
</mask>
<path d="M11.1494 662.642C-7.94506 661.388 -27.6499 656.797 -45.3367 649.482L-48 648.381V631.103V613.825L-42.3976 616.491C-26.1115 624.242 -11.513 628.541 6.18958 630.801C13.4294 631.726 31.1554 631.728 38.7035 630.805C75.1785 626.344 109.382 610.373 142.307 582.428C148.626 577.065 160.842 565.129 167.01 558.292C180.607 543.218 193.08 525.87 203.059 508.153C206.086 502.778 206.135 502.167 203.659 500.654C199.309 497.995 159.337 466.701 143.966 453.921C117.454 431.878 95.6275 410.738 79.1226 391.118C70.3232 380.658 59.5327 365.615 53.3314 355.165C36.3728 326.585 26.8462 296.775 25.5991 268.384L25.3626 263H41.1681H56.9735L57.2202 268.019C57.6934 277.661 58.7683 285.352 60.7953 293.606C67.609 321.349 83.8759 349.201 111.033 379.62C116.464 385.704 137.218 406.319 144.144 412.509C156.988 423.99 169.885 434.831 184.74 446.633C196.146 455.695 218.357 472.903 219.489 473.554C220.01 473.854 220.684 474.006 220.987 473.891C221.896 473.544 227.281 461.98 231.476 451.365C258.151 383.871 254.425 316.511 221.302 267.39L218.342 263H237.018H255.694L258.234 267.837C267.41 285.306 272.979 300.84 276.717 319.394C279.196 331.701 280.364 342.774 280.682 356.99C281.608 398.461 271.447 442.283 251.006 484.976C248.786 489.613 248.422 490.634 248.701 491.445C248.978 492.248 250.622 493.2 258.585 497.168C294.672 515.149 325.935 525.804 353.555 529.534C358.712 530.23 361.291 530.354 370.822 530.361C382.282 530.367 385.038 530.156 392.682 528.675C408.539 525.602 423.623 518.425 437.404 507.394C442.377 503.414 450.551 495.568 455.667 489.865C465.888 478.471 473.197 468.83 493.583 439.847C518.531 404.378 532.025 387.555 549.369 370.3C565.096 354.653 579.488 343.281 595.925 333.513C621.831 318.118 644.422 309.821 668.223 306.96C675.173 306.124 688.779 306.121 695.777 306.954C715.346 309.281 734.71 315.948 756.764 327.953C766.101 333.036 777.406 339.865 794.982 351.041C827.072 371.445 836.749 377.134 853.57 385.482C869.685 393.479 884.245 399.16 899.31 403.329C902.745 404.279 906.795 405.446 908.311 405.922C914.519 407.872 926.837 409.628 943.213 410.898C952.566 411.623 976.777 411.523 982.34 410.735C990.071 409.641 994.318 408.247 996.116 406.212C996.738 405.508 997.22 404.549 997.22 404.013C997.22 403.49 995.169 399.184 992.664 394.444C973.5 358.186 958.676 325.94 947.255 295.669C944.215 287.613 936.245 264.312 936.237 263.457C936.233 263.099 939.768 263.001 952.698 263.001H969.163L969.82 265.1C973.93 278.235 984.163 304.067 993.319 324.422C1000.63 340.67 1016.45 372.821 1023.36 385.461C1025.49 389.358 1025.88 389.393 1028.71 385.938C1041.51 370.3 1048.91 351.799 1051.67 328.52C1052.39 322.447 1052.27 303.304 1051.47 296.276C1050.37 286.564 1047.43 270.952 1045.54 264.735L1045.01 263.001H1061.64H1078.26L1079.43 268.932C1082.31 283.472 1083.2 291.925 1083.45 306.818C1083.7 322.227 1083.07 330.815 1080.76 343.303C1075.9 369.563 1064.32 394.063 1047.57 413.508C1046.04 415.282 1044.32 417.293 1043.75 417.976L1042.7 419.219L1045.92 424.241C1075.93 471.111 1101.04 496.531 1123.25 502.51C1127.32 503.604 1134.99 503.705 1138.66 502.713C1144.41 501.157 1149.98 497.718 1154.86 492.714C1162.34 485.041 1166.66 477.311 1172.37 461.383C1179.87 440.49 1184.36 421.273 1191.74 378.526C1197.86 343.065 1200.72 329.159 1205.34 312.473C1209.76 296.502 1214.39 284.183 1221.23 270.21L1224.76 263.001H1242.88C1252.85 263.001 1261 263.049 1261 263.108C1261 263.167 1259.58 265.671 1257.84 268.674C1245.76 289.568 1236.9 314.074 1229.6 346.771C1226.87 359.015 1225.17 367.781 1220.61 393.323C1213.75 431.689 1210.46 446.909 1204.93 465.763C1201.16 478.603 1196.26 489.337 1189.67 499.162C1175.93 519.662 1157.06 532.414 1136.7 534.947C1131.62 535.578 1121.93 535.21 1117.17 534.205C1107.06 532.074 1097.15 527.449 1087.98 520.589C1079.85 514.498 1065.95 501.594 1057.81 492.57C1044.74 478.075 1033.39 462.723 1018.02 438.743C1016.15 435.819 1014.61 434.559 1012.93 434.557C1012.38 434.556 1009.65 435.28 1006.87 436.165C992.211 440.829 979.431 442.858 962.497 443.207C943.749 443.594 926.192 441.624 902.797 436.51C880.799 431.702 864.687 425.986 842.729 415.199C826.775 407.362 814.527 400.231 787.988 383.327C760.415 365.765 750.776 360.025 738.574 353.902C722.446 345.809 708.126 341.011 693.753 338.884C686.345 337.787 673.594 337.696 666.75 338.691C646.943 341.571 628.809 348.917 608.656 362.226C595.878 370.666 580.671 382.86 570.298 392.986C564.479 398.667 547.364 420.535 529.909 444.593C525.394 450.817 518.958 459.686 515.609 464.304C493.924 494.194 479.509 511.341 464.87 524.655C441.021 546.346 415.976 557.784 386.008 560.673C374.109 561.819 356.582 561.211 342.714 559.17C308.238 554.097 275.476 542.739 242.784 524.529C234.778 520.069 233.564 519.705 231.918 521.272C231.317 521.844 230.143 523.547 229.309 525.057C226.399 530.323 220.421 539.91 215.866 546.613C191.205 582.902 159.944 612.724 124.745 633.537C117.284 637.948 103.075 645.019 95.0943 648.291C68.0011 659.399 38.5094 664.44 11.1494 662.642Z" fill="url(#paint0_linear_168_2282)"/>
<path d="M11.1494 662.642C-7.94506 661.388 -27.6499 656.797 -45.3367 649.482L-48 648.381V631.103V613.825L-42.3976 616.491C-26.1115 624.242 -11.513 628.541 6.18958 630.801C13.4294 631.726 31.1554 631.728 38.7035 630.805C75.1785 626.344 109.382 610.373 142.307 582.428C148.626 577.065 160.842 565.129 167.01 558.292C180.607 543.218 193.08 525.87 203.059 508.153C206.086 502.778 206.135 502.167 203.659 500.654C199.309 497.995 159.337 466.701 143.966 453.921C117.454 431.878 95.6275 410.738 79.1226 391.118C70.3232 380.658 59.5327 365.615 53.3314 355.165C36.3728 326.585 26.8462 296.775 25.5991 268.384L25.3626 263H41.1681H56.9735L57.2202 268.019C57.6934 277.661 58.7683 285.352 60.7953 293.606C67.609 321.349 83.8759 349.201 111.033 379.62C116.464 385.704 137.218 406.319 144.144 412.509C156.988 423.99 169.885 434.831 184.74 446.633C196.146 455.695 218.357 472.903 219.489 473.554C220.01 473.854 220.684 474.006 220.987 473.891C221.896 473.544 227.281 461.98 231.476 451.365C258.151 383.871 254.425 316.511 221.302 267.39L218.342 263H237.018H255.694L258.234 267.837C267.41 285.306 272.979 300.84 276.717 319.394C279.196 331.701 280.364 342.774 280.682 356.99C281.608 398.461 271.447 442.283 251.006 484.976C248.786 489.613 248.422 490.634 248.701 491.445C248.978 492.248 250.622 493.2 258.585 497.168C294.672 515.149 325.935 525.804 353.555 529.534C358.712 530.23 361.291 530.354 370.822 530.361C382.282 530.367 385.038 530.156 392.682 528.675C408.539 525.602 423.623 518.425 437.404 507.394C442.377 503.414 450.551 495.568 455.667 489.865C465.888 478.471 473.197 468.83 493.583 439.847C518.531 404.378 532.025 387.555 549.369 370.3C565.096 354.653 579.488 343.281 595.925 333.513C621.831 318.118 644.422 309.821 668.223 306.96C675.173 306.124 688.779 306.121 695.777 306.954C715.346 309.281 734.71 315.948 756.764 327.953C766.101 333.036 777.406 339.865 794.982 351.041C827.072 371.445 836.749 377.134 853.57 385.482C869.685 393.479 884.245 399.16 899.31 403.329C902.745 404.279 906.795 405.446 908.311 405.922C914.519 407.872 926.837 409.628 943.213 410.898C952.566 411.623 976.777 411.523 982.34 410.735C990.071 409.641 994.318 408.247 996.116 406.212C996.738 405.508 997.22 404.549 997.22 404.013C997.22 403.49 995.169 399.184 992.664 394.444C973.5 358.186 958.676 325.94 947.255 295.669C944.215 287.613 936.245 264.312 936.237 263.457C936.233 263.099 939.768 263.001 952.698 263.001H969.163L969.82 265.1C973.93 278.235 984.163 304.067 993.319 324.422C1000.63 340.67 1016.45 372.821 1023.36 385.461C1025.49 389.358 1025.88 389.393 1028.71 385.938C1041.51 370.3 1048.91 351.799 1051.67 328.52C1052.39 322.447 1052.27 303.304 1051.47 296.276C1050.37 286.564 1047.43 270.952 1045.54 264.735L1045.01 263.001H1061.64H1078.26L1079.43 268.932C1082.31 283.472 1083.2 291.925 1083.45 306.818C1083.7 322.227 1083.07 330.815 1080.76 343.303C1075.9 369.563 1064.32 394.063 1047.57 413.508C1046.04 415.282 1044.32 417.293 1043.75 417.976L1042.7 419.219L1045.92 424.241C1075.93 471.111 1101.04 496.531 1123.25 502.51C1127.32 503.604 1134.99 503.705 1138.66 502.713C1144.41 501.157 1149.98 497.718 1154.86 492.714C1162.34 485.041 1166.66 477.311 1172.37 461.383C1179.87 440.49 1184.36 421.273 1191.74 378.526C1197.86 343.065 1200.72 329.159 1205.34 312.473C1209.76 296.502 1214.39 284.183 1221.23 270.21L1224.76 263.001H1242.88C1252.85 263.001 1261 263.049 1261 263.108C1261 263.167 1259.58 265.671 1257.84 268.674C1245.76 289.568 1236.9 314.074 1229.6 346.771C1226.87 359.015 1225.17 367.781 1220.61 393.323C1213.75 431.689 1210.46 446.909 1204.93 465.763C1201.16 478.603 1196.26 489.337 1189.67 499.162C1175.93 519.662 1157.06 532.414 1136.7 534.947C1131.62 535.578 1121.93 535.21 1117.17 534.205C1107.06 532.074 1097.15 527.449 1087.98 520.589C1079.85 514.498 1065.95 501.594 1057.81 492.57C1044.74 478.075 1033.39 462.723 1018.02 438.743C1016.15 435.819 1014.61 434.559 1012.93 434.557C1012.38 434.556 1009.65 435.28 1006.87 436.165C992.211 440.829 979.431 442.858 962.497 443.207C943.749 443.594 926.192 441.624 902.797 436.51C880.799 431.702 864.687 425.986 842.729 415.199C826.775 407.362 814.527 400.231 787.988 383.327C760.415 365.765 750.776 360.025 738.574 353.902C722.446 345.809 708.126 341.011 693.753 338.884C686.345 337.787 673.594 337.696 666.75 338.691C646.943 341.571 628.809 348.917 608.656 362.226C595.878 370.666 580.671 382.86 570.298 392.986C564.479 398.667 547.364 420.535 529.909 444.593C525.394 450.817 518.958 459.686 515.609 464.304C493.924 494.194 479.509 511.341 464.87 524.655C441.021 546.346 415.976 557.784 386.008 560.673C374.109 561.819 356.582 561.211 342.714 559.17C308.238 554.097 275.476 542.739 242.784 524.529C234.778 520.069 233.564 519.705 231.918 521.272C231.317 521.844 230.143 523.547 229.309 525.057C226.399 530.323 220.421 539.91 215.866 546.613C191.205 582.902 159.944 612.724 124.745 633.537C117.284 637.948 103.075 645.019 95.0943 648.291C68.0011 659.399 38.5094 664.44 11.1494 662.642Z" stroke="url(#paint1_linear_168_2282)" stroke-width="30" mask="url(#path-1-outside-1_168_2282)"/>
<rect opacity="0.7" width="390" height="844" fill="white"/>
</g>
<defs>
<linearGradient id="paint0_linear_168_2282" x1="606.5" y1="566.939" x2="606.5" y2="263" gradientUnits="userSpaceOnUse">
<stop stop-color="#F8E152"/>
<stop offset="0.5" stop-color="#FF366D"/>
<stop offset="1" stop-color="#FF7B02"/>
</linearGradient>
<linearGradient id="paint1_linear_168_2282" x1="606.5" y1="566.939" x2="606.5" y2="263" gradientUnits="userSpaceOnUse">
<stop stop-color="#F8E152"/>
<stop offset="0.5" stop-color="#FF366D"/>
<stop offset="1" stop-color="#FF7B02"/>
</linearGradient>
<clipPath id="clip0_168_2282">
<rect width="390" height="844" fill="white"/>
</clipPath>
</defs>
</svg>
