<svg width="42" height="40" viewBox="0 0 42 40" fill="none" xmlns="http://www.w3.org/2000/svg">
<path d="M31.3107 19.446C25.8512 19.446 21.4219 23.961 21.4219 29.526C21.4219 31.416 21.9369 33.201 22.864 34.713C24.5739 37.632 27.7054 39.606 31.3107 39.606C34.9159 39.606 38.068 37.632 39.7573 34.713C40.6638 33.201 41.1994 31.416 41.1994 29.526C41.1994 23.961 36.7701 19.446 31.3107 19.446ZM36.2138 28.203L30.9398 33.159C30.6514 33.432 30.26 33.579 29.8891 33.579C29.4977 33.579 29.1063 33.432 28.7973 33.117L26.3663 30.639C25.7688 30.03 25.7688 29.022 26.3663 28.413C26.9637 27.804 27.9526 27.804 28.55 28.413L29.9303 29.82L34.1125 25.872C34.7305 25.284 35.7194 25.326 36.2963 25.956C36.8731 26.607 36.8319 27.615 36.2138 28.203Z" fill="url(#paint0_linear_464_1877)"/>
<path d="M41.2033 11.739C41.2033 14.238 40.8118 16.548 40.132 18.69C40.0084 19.131 39.4933 19.257 39.1225 18.984C36.8769 17.283 34.1369 16.38 31.3145 16.38C24.1657 16.38 18.3354 22.323 18.3354 29.61C18.3354 31.878 18.9123 34.104 20.0042 36.078C20.3338 36.666 19.9424 37.422 19.3243 37.191C14.3593 35.469 4.32634 29.19 1.07128 18.69C0.391431 16.548 0 14.238 0 11.739C0 5.25 5.1298 0 11.4545 0C15.1834 0 18.5209 1.848 20.6016 4.683C22.6824 1.848 26.0199 0 29.7487 0C36.0734 0 41.2033 5.25 41.2033 11.739Z" fill="url(#paint1_linear_464_1877)"/>
<defs>
<linearGradient id="paint0_linear_464_1877" x1="41.1019" y1="38.5341" x2="8.01219" y2="23.5101" gradientUnits="userSpaceOnUse">
<stop stop-color="#F8E152"/>
<stop offset="0.5" stop-color="#FF366D"/>
<stop offset="1" stop-color="#FF7B02"/>
</linearGradient>
<linearGradient id="paint1_linear_464_1877" x1="41" y1="35.2538" x2="-24.87" y2="1.51783" gradientUnits="userSpaceOnUse">
<stop stop-color="#F8E152"/>
<stop offset="0.5" stop-color="#FF366D"/>
<stop offset="1" stop-color="#FF7B02"/>
</linearGradient>
</defs>
</svg>
