<svg width="330" height="127" viewBox="0 0 330 127" fill="none" xmlns="http://www.w3.org/2000/svg">
<path d="M0.85 125.981V20.6747C0.85 9.79431 10.4892 0.85 22.5364 0.85H307.464C319.511 0.85 329.15 9.7943 329.15 20.6747V107.985L326.298 109.253H319.826H319.633L319.458 109.336L312.001 112.918L303.608 113.57L303.529 113.576L303.453 113.596L297.564 115.178L294.037 113.638L293.874 113.567H293.697H287.996H287.729L287.509 113.721L282.721 117.066L280.81 115.998L280.617 115.89H280.395H268.519H268.402L268.29 115.921L263.65 117.218H257.674L251.105 115.907L250.803 115.846L250.533 115.993L246.412 118.233L239.498 118.877H231.059L227.331 118.225L227.258 118.213H227.185H224.809H224.665L224.529 118.26L219.958 119.857L203.994 118.217L203.95 118.213H203.907H196.779H195.929V119.063V119.872H176.35H176.282L176.215 119.882L170.106 120.866H163.997H163.909L163.823 120.884L159.315 121.83L154.324 119.927L153.846 119.745L153.462 120.081L150.019 123.089L146.196 121.902L146.189 121.899L142.864 120.902L142.6 120.823L142.339 120.914L139.703 121.836L134.702 120.881L134.496 120.842L134.295 120.904L127.033 123.124L123.073 120.97L122.776 120.809L122.451 120.894L118.756 121.863H112.687H108.887H108.78L108.677 121.89L103.452 123.218L103.417 123.227L103.382 123.239L100.666 124.186H95.5853H92.1314L90.0032 122.106L89.8006 121.908L89.5196 121.871L81.9188 120.874L81.7184 120.847L81.5276 120.914L78.6764 121.911L78.6761 121.911L72.3633 124.115L66.035 120.956L65.7488 120.813L65.4395 120.894L61.7452 121.863H58.0519H57.9456L57.8425 121.89L52.6176 123.218L52.381 123.278L52.2123 123.454L50.5632 125.181H46.8598L43.2928 123.314L40.0128 121.02L39.6334 120.754L39.2047 120.929L33.5396 123.239L27.1457 125.152L18.8135 123.214L18.5843 123.16L18.3603 123.232L12.3111 125.181H5.31697H5.24015L5.16457 125.195L0.85 125.981Z" fill="url(#paint0_linear_335_1782)"/>
<path d="M0.85 125.981V20.6747C0.85 9.79431 10.4892 0.85 22.5364 0.85H307.464C319.511 0.85 329.15 9.7943 329.15 20.6747V107.985L326.298 109.253H319.826H319.633L319.458 109.336L312.001 112.918L303.608 113.57L303.529 113.576L303.453 113.596L297.564 115.178L294.037 113.638L293.874 113.567H293.697H287.996H287.729L287.509 113.721L282.721 117.066L280.81 115.998L280.617 115.89H280.395H268.519H268.402L268.29 115.921L263.65 117.218H257.674L251.105 115.907L250.803 115.846L250.533 115.993L246.412 118.233L239.498 118.877H231.059L227.331 118.225L227.258 118.213H227.185H224.809H224.665L224.529 118.26L219.958 119.857L203.994 118.217L203.95 118.213H203.907H196.779H195.929V119.063V119.872H176.35H176.282L176.215 119.882L170.106 120.866H163.997H163.909L163.823 120.884L159.315 121.83L154.324 119.927L153.846 119.745L153.462 120.081L150.019 123.089L146.196 121.902L146.189 121.899L142.864 120.902L142.6 120.823L142.339 120.914L139.703 121.836L134.702 120.881L134.496 120.842L134.295 120.904L127.033 123.124L123.073 120.97L122.776 120.809L122.451 120.894L118.756 121.863H112.687H108.887H108.78L108.677 121.89L103.452 123.218L103.417 123.227L103.382 123.239L100.666 124.186H95.5853H92.1314L90.0032 122.106L89.8006 121.908L89.5196 121.871L81.9188 120.874L81.7184 120.847L81.5276 120.914L78.6764 121.911L78.6761 121.911L72.3633 124.115L66.035 120.956L65.7488 120.813L65.4395 120.894L61.7452 121.863H58.0519H57.9456L57.8425 121.89L52.6176 123.218L52.381 123.278L52.2123 123.454L50.5632 125.181H46.8598L43.2928 123.314L40.0128 121.02L39.6334 120.754L39.2047 120.929L33.5396 123.239L27.1457 125.152L18.8135 123.214L18.5843 123.16L18.3603 123.232L12.3111 125.181H5.31697H5.24015L5.16457 125.195L0.85 125.981Z" stroke="url(#paint1_linear_335_1782)" stroke-width="1.7"/>
<path d="M0.85 125.981V20.6747C0.85 9.79431 10.4892 0.85 22.5364 0.85H307.464C319.511 0.85 329.15 9.7943 329.15 20.6747V107.985L326.298 109.253H319.826H319.633L319.458 109.336L312.001 112.918L303.608 113.57L303.529 113.576L303.453 113.596L297.564 115.178L294.037 113.638L293.874 113.567H293.697H287.996H287.729L287.509 113.721L282.721 117.066L280.81 115.998L280.617 115.89H280.395H268.519H268.402L268.29 115.921L263.65 117.218H257.674L251.105 115.907L250.803 115.846L250.533 115.993L246.412 118.233L239.498 118.877H231.059L227.331 118.225L227.258 118.213H227.185H224.809H224.665L224.529 118.26L219.958 119.857L203.994 118.217L203.95 118.213H203.907H196.779H195.929V119.063V119.872H176.35H176.282L176.215 119.882L170.106 120.866H163.997H163.909L163.823 120.884L159.315 121.83L154.324 119.927L153.846 119.745L153.462 120.081L150.019 123.089L146.196 121.902L146.189 121.899L142.864 120.902L142.6 120.823L142.339 120.914L139.703 121.836L134.702 120.881L134.496 120.842L134.295 120.904L127.033 123.124L123.073 120.97L122.776 120.809L122.451 120.894L118.756 121.863H112.687H108.887H108.78L108.677 121.89L103.452 123.218L103.417 123.227L103.382 123.239L100.666 124.186H95.5853H92.1314L90.0032 122.106L89.8006 121.908L89.5196 121.871L81.9188 120.874L81.7184 120.847L81.5276 120.914L78.6764 121.911L78.6761 121.911L72.3633 124.115L66.035 120.956L65.7488 120.813L65.4395 120.894L61.7452 121.863H58.0519H57.9456L57.8425 121.89L52.6176 123.218L52.381 123.278L52.2123 123.454L50.5632 125.181H46.8598L43.2928 123.314L40.0128 121.02L39.6334 120.754L39.2047 120.929L33.5396 123.239L27.1457 125.152L18.8135 123.214L18.5843 123.16L18.3603 123.232L12.3111 125.181H5.31697H5.24015L5.16457 125.195L0.85 125.981Z" stroke="url(#paint2_linear_335_1782)" stroke-width="1.7"/>
<defs>
<linearGradient id="paint0_linear_335_1782" x1="165.473" y1="1.66628e-06" x2="152.56" y2="100.439" gradientUnits="userSpaceOnUse">
<stop stop-color="white"/>
<stop offset="1" stop-color="white" stop-opacity="0.3"/>
</linearGradient>
<linearGradient id="paint1_linear_335_1782" x1="6.20555e-07" y1="123.521" x2="328.554" y2="67.237" gradientUnits="userSpaceOnUse">
<stop stop-color="#FF64A1" stop-opacity="0.35"/>
<stop offset="0.521702" stop-color="#FFD04E"/>
<stop offset="1" stop-color="#FF7B02" stop-opacity="0.8"/>
</linearGradient>
<linearGradient id="paint2_linear_335_1782" x1="165.473" y1="-67.4144" x2="165.073" y2="127" gradientUnits="userSpaceOnUse">
<stop stop-color="white" stop-opacity="0.8"/>
<stop offset="1" stop-color="white" stop-opacity="0"/>
</linearGradient>
</defs>
</svg>
