<svg width="14" height="14" viewBox="0 0 14 14" fill="none" xmlns="http://www.w3.org/2000/svg">
<g clip-path="url(#clip0_0_2046)">
<path d="M12.25 0H1.75C0.785167 0 0 0.785167 0 1.75V14H14V1.75C14 0.785167 13.2148 0 12.25 0ZM10.5706 6.19558L5.97508 10.7917H3.5V8.31717L8.09608 3.72108C8.757 3.06017 9.90967 3.06017 10.5712 3.72108C11.2531 4.40358 11.2525 5.51308 10.5706 6.19558ZM8.3125 6.804L5.4915 9.625H4.66608V8.80017L7.48708 5.97917L8.31192 6.804H8.3125ZM9.74575 4.54592C9.97325 4.77342 9.97325 5.14325 9.74575 5.37075L9.13733 5.97917L8.3125 5.15433L8.92092 4.54592C9.14083 4.32483 9.52525 4.32483 9.74575 4.54592Z" fill="#FF7B02"/>
</g>
<defs>
<clipPath id="clip0_0_2046">
<rect width="14" height="14" fill="white"/>
</clipPath>
</defs>
</svg>
