<svg width="14" height="24" viewBox="0 0 14 24" fill="none" xmlns="http://www.w3.org/2000/svg">
<path d="M12.5956 16.1382L8.35195 11.8056H5.50531L1.26161 16.1382C0.0746347 17.3424 -0.314021 19.1959 0.26371 20.8722C0.841442 22.5368 2.249 23.6111 3.83514 23.6111H10.0221C11.6188 23.6111 13.0158 22.5368 13.5935 20.8722C14.1713 19.1959 13.7826 17.3424 12.5956 16.1382ZM8.84564 19.0542H5.02211C4.62295 19.0542 4.30783 18.6882 4.30783 18.2514C4.30783 17.8146 4.63346 17.4486 5.02211 17.4486H8.84564C9.2448 17.4486 9.55993 17.8146 9.55993 18.2514C9.55993 18.6882 9.2343 19.0542 8.84564 19.0542Z" fill="#40008C"/>
<path d="M13.6049 2.73889C13.0271 1.07431 11.6196 0 10.0334 0H3.83596C2.24983 0 0.842265 1.07431 0.264534 2.73889C-0.302693 4.41528 0.0859626 6.26875 1.27294 7.47292L5.51663 11.8056H8.36327L12.607 7.47292C13.7834 6.26875 14.1721 4.41528 13.6049 2.73889ZM8.84647 6.17431H5.02294C4.62378 6.17431 4.30865 5.80833 4.30865 5.37153C4.30865 4.93472 4.63428 4.56875 5.02294 4.56875H8.84647C9.24563 4.56875 9.56075 4.93472 9.56075 5.37153C9.56075 5.80833 9.23512 6.17431 8.84647 6.17431Z" fill="#40008C"/>
</svg>
