<svg width="676" height="261" viewBox="0 0 676 261" fill="none" xmlns="http://www.w3.org/2000/svg">
<path d="M104.97 0.0599982C47.5799 4.48 -4.74008 59.18 0.339916 124.85C2.72992 155.48 15.4399 185.45 36.9599 205.59C61.3199 228.52 91.9699 235.56 123.65 233.6C157.28 231.47 189.12 220.66 210.79 190.86C230.82 163.35 245.47 125.84 237.1 90.14C229.48 57.71 201.83 32.16 170.59 37.08C137.56 42.32 116.33 75.4 111.4 109.47C105.87 147.46 108.71 194.96 135.76 222.96C162.81 250.97 203.47 254.73 240.24 254.73C264.3 254.73 264.3 213.79 240.24 213.79C217.82 213.79 193.31 214.61 172.98 202.33C152.65 190.05 147.72 169.08 146.97 145.5C146.23 124.05 146.97 96.53 164.76 82.78C179.86 70.82 195.85 81.47 200.78 99.48C206.61 120.93 195.4 145.5 184.04 162.37C170.29 182.68 149.96 190.38 127.54 192.34C106.76 194.14 84.4899 193.32 66.8599 179.57C52.6599 168.43 42.9399 151.07 39.0599 132.57C29.6399 87.7 64.6199 44.13 105.13 41.02C128.9 39.22 129.05 -1.72 104.96 0.0799982H104.98L104.97 0.0599982Z" fill="url(#paint0_linear_26_106)"/>
<path d="M633.81 254.72H663.74C667.59 254.72 670.7 251.6 670.7 247.76V77.53C670.7 74.47 668.22 71.99 665.16 71.99H632.38C629.32 71.99 626.85 74.47 626.85 77.52V247.76C626.85 251.6 629.96 254.72 633.81 254.72Z" fill="black"/>
<path d="M649.88 51.16C664.13 51.16 675.46 39.83 675.46 25.58C675.46 11.33 664.13 0 649.88 0C635.63 0 624.3 11.33 624.3 25.58C624.3 39.83 635.26 51.16 649.88 51.16Z" fill="black"/>
<path d="M561.44 66.51C546.61 66.51 533.4 74.61 525.12 86.94C521.56 92.25 518.6 92.15 517.15 85.91L515.22 77.59C514.46 74.31 511.54 71.99 508.18 71.99H481.53C478.84 71.99 476.65 74.17 476.65 76.87V247.74C476.65 251.6 479.78 254.73 483.64 254.73H513.9C517.75 254.73 520.88 251.61 520.88 247.75V131.93C523.44 114.39 536.23 103.06 557.06 103.06C563.59 103.06 570.11 104.66 576.54 107.96C582.28 110.91 588.53 109.64 591.27 103.79L600.68 83.72C601.82 81.28 600.93 78.09 598.6 76.74C586.97 70.01 574.5 66.51 561.45 66.51H561.44Z" fill="black"/>
<path d="M395.16 193.69C392.6 212.33 376.89 223.29 359.71 223.29C338.51 223.29 325.72 212.33 321.34 190.03L302.53 77.53C302 74.33 299.23 71.99 295.99 71.99H263.35C260.74 71.99 258.62 74.11 258.62 76.72C258.62 76.99 258.64 77.25 258.69 77.52L278.58 194.06C286.99 238.28 309.28 260.21 345.82 260.21C367.38 260.21 384.56 251.07 396.98 232.44L400.46 247.62C401.42 251.78 405.12 254.74 409.39 254.74H432.38C436.24 254.74 439.36 251.61 439.36 247.76V77.54C439.36 74.48 436.88 72 433.82 72H400.69C397.63 72 395.14 74.48 395.14 77.55V193.7L395.16 193.69Z" fill="black"/>
<defs>
<linearGradient id="paint0_linear_26_106" x1="2.34232" y1="121.878" x2="260.776" y2="121.878" gradientUnits="userSpaceOnUse">
<stop stop-color="#FF7B02"/>
<stop offset="1" stop-color="#FFD855"/>
</linearGradient>
</defs>
</svg>
