<svg width="34" height="34" viewBox="0 0 34 34" fill="none" xmlns="http://www.w3.org/2000/svg">
<g clip-path="url(#clip0_0_91)">
<path d="M34 11.3333C34 7.96875 31.2078 0 26.8062 0C22.4683 0 19.8333 7.87242 19.8333 11.3333C19.8333 14.7532 22.2714 17.6148 25.5 18.2736V34H28.3333V18.2736C31.5619 17.6148 34 14.7546 34 11.3333ZM22.6667 20.2909C19.2794 18.6759 17 15.2122 17 11.3333C17 9.51575 17.5992 6.46283 18.8799 3.65358C17.4037 3.13225 15.8213 2.83333 14.1667 2.83333C6.34242 2.83333 0 9.17575 0 17C0 24.8242 6.34242 31.1667 14.1667 31.1667C17.3598 31.1667 20.2966 30.0971 22.6667 28.3135V20.2909ZM15.5833 17.5865L10.9182 22.2516L8.91508 20.2484L12.75 16.4135V9.91667H15.5833V17.5865Z" fill="white"/>
</g>
<defs>
<clipPath id="clip0_0_91">
<rect width="34" height="34" fill="white"/>
</clipPath>
</defs>
</svg>
