<svg width="27" height="34" viewBox="0 0 27 34" fill="none" xmlns="http://www.w3.org/2000/svg">
<path d="M7.83333 0C5.95541 0.00224946 4.15504 0.749249 2.82714 2.07714C1.49925 3.40504 0.752249 5.20541 0.75 7.08333V32.5833C0.7502 32.841 0.820672 33.0937 0.953832 33.3143C1.08699 33.5349 1.2778 33.715 1.5057 33.8353C1.73361 33.9555 1.98999 34.0113 2.24725 33.9966C2.5045 33.982 2.75289 33.8974 2.96567 33.7521L5.94917 31.7135L8.93267 33.7521C9.16838 33.9135 9.4474 33.9999 9.73308 33.9999C10.0188 33.9999 10.2978 33.9135 10.5335 33.7521L13.5085 31.7135L16.4835 33.7521C16.7194 33.9138 16.9986 34.0004 17.2846 34.0004C17.5706 34.0004 17.8499 33.9138 18.0858 33.7521L21.0607 31.7149L24.0357 33.7507C24.2484 33.8955 24.4965 33.9798 24.7534 33.9943C25.0104 34.0088 25.2664 33.953 25.494 33.833C25.7216 33.713 25.9123 33.5333 26.0455 33.3131C26.1787 33.0929 26.2494 32.8407 26.25 32.5833V7.08333C26.2477 5.20541 25.5008 3.40504 24.1729 2.07714C22.845 0.749249 21.0446 0.00224946 19.1667 0L7.83333 0ZM16.3333 19.8333H7.83333C7.45761 19.8333 7.09728 19.6841 6.8316 19.4184C6.56592 19.1527 6.41667 18.7924 6.41667 18.4167C6.41667 18.0409 6.56592 17.6806 6.8316 17.4149C7.09728 17.1493 7.45761 17 7.83333 17H16.3333C16.7091 17 17.0694 17.1493 17.3351 17.4149C17.6007 17.6806 17.75 18.0409 17.75 18.4167C17.75 18.7924 17.6007 19.1527 17.3351 19.4184C17.0694 19.6841 16.7091 19.8333 16.3333 19.8333ZM20.5833 12.75C20.5833 13.1257 20.4341 13.4861 20.1684 13.7517C19.9027 14.0174 19.5424 14.1667 19.1667 14.1667H7.83333C7.45761 14.1667 7.09728 14.0174 6.8316 13.7517C6.56592 13.4861 6.41667 13.1257 6.41667 12.75C6.41667 12.3743 6.56592 12.0139 6.8316 11.7483C7.09728 11.4826 7.45761 11.3333 7.83333 11.3333H19.1667C19.5424 11.3333 19.9027 11.4826 20.1684 11.7483C20.4341 12.0139 20.5833 12.3743 20.5833 12.75Z" fill="white"/>
</svg>
