<svg width="196" height="76" viewBox="0 0 196 76" fill="none" xmlns="http://www.w3.org/2000/svg">
<g clip-path="url(#clip0_0_98)">
<path d="M30.4595 0.0176066C13.8065 1.30017 -1.37536 17.1726 0.0987127 36.2282C0.792225 45.1162 4.48032 53.8127 10.7248 59.6568C17.7934 66.3104 26.6872 68.3533 35.8799 67.7845C45.6384 67.1665 54.8775 64.0297 61.1655 55.3825C66.9777 47.3999 71.2287 36.5155 68.8 26.1564C66.5889 16.7461 58.5656 9.33215 49.5006 10.7598C39.9162 12.2803 33.7558 21.8792 32.3253 31.7654C30.7206 42.7891 31.5447 56.5723 39.3939 64.6971C47.2431 72.8248 59.0415 73.9159 69.7111 73.9159C76.6927 73.9159 76.6927 62.0362 69.7111 62.0362C63.2055 62.0362 56.0933 62.2741 50.1941 58.7108C44.2949 55.1475 42.8643 49.0626 42.6467 42.2203C42.432 35.9961 42.6467 28.0106 47.8089 24.0207C52.1905 20.5502 56.8304 23.6406 58.2609 28.8666C59.9526 35.0908 56.6998 42.2203 53.4034 47.1155C49.4135 53.0089 43.5143 55.2433 37.0087 55.812C30.9789 56.3343 24.5167 56.0964 19.401 52.1065C15.2805 48.874 12.4601 43.8366 11.3342 38.4684C8.60077 25.4483 18.751 12.8055 30.5059 11.9031C37.4033 11.3808 37.4468 -0.498901 30.4566 0.0234101H30.4624L30.4595 0.0176066Z" fill="url(#paint0_linear_0_98)"/>
<path d="M183.914 73.9128H192.599C193.716 73.9128 194.619 73.0074 194.619 71.8932V22.4971C194.619 21.6092 193.899 20.8895 193.011 20.8895H183.499C182.612 20.8895 181.895 21.6092 181.895 22.4942V71.8932C181.895 73.0074 182.797 73.9128 183.914 73.9128Z" fill="black"/>
<path d="M188.577 14.8452C192.712 14.8452 196 11.5576 196 7.42262C196 3.28766 192.712 0 188.577 0C184.442 0 181.155 3.28766 181.155 7.42262C181.155 11.5576 184.335 14.8452 188.577 14.8452Z" fill="black"/>
<path d="M162.915 19.2994C158.611 19.2994 154.778 21.6498 152.375 25.2276C151.342 26.7684 150.484 26.7394 150.063 24.9287L149.503 22.5145C149.282 21.5627 148.435 20.8895 147.46 20.8895H139.727C138.946 20.8895 138.311 21.5221 138.311 22.3056V71.8874C138.311 73.0074 139.219 73.9157 140.339 73.9157H149.12C150.237 73.9157 151.145 73.0103 151.145 71.8903V38.2825C151.888 33.1928 155.599 29.9052 161.644 29.9052C163.538 29.9052 165.43 30.3695 167.296 31.327C168.962 32.183 170.775 31.8145 171.57 30.117L174.301 24.2932C174.632 23.5852 174.373 22.6596 173.697 22.2678C170.323 20.315 166.704 19.2994 162.917 19.2994H162.915Z" fill="black"/>
<path d="M114.665 56.2035C113.922 61.6124 109.363 64.7926 104.378 64.7926C98.2263 64.7926 94.515 61.6124 93.2441 55.1415L87.7859 22.4971C87.6321 21.5685 86.8283 20.8895 85.8882 20.8895H76.417C75.6596 20.8895 75.0444 21.5047 75.0444 22.262C75.0444 22.3404 75.0502 22.4158 75.0647 22.4942L80.8363 56.3109C83.2766 69.1423 89.7446 75.5058 100.347 75.5058C106.604 75.5058 111.589 72.8536 115.193 67.4477L116.203 71.8525C116.481 73.0597 117.555 73.9186 118.794 73.9186H125.465C126.585 73.9186 127.49 73.0103 127.49 71.8932V22.5C127.49 21.6121 126.771 20.8924 125.883 20.8924H116.269C115.381 20.8924 114.659 21.6121 114.659 22.5029V56.2064L114.665 56.2035Z" fill="black"/>
</g>
<defs>
<linearGradient id="paint0_linear_0_98" x1="0.679754" y1="36.283" x2="75.6702" y2="36.283" gradientUnits="userSpaceOnUse">
<stop stop-color="#0F84F6"/>
<stop offset="1" stop-color="#88F2FF"/>
</linearGradient>
<clipPath id="clip0_0_98">
<rect width="196" height="75.5029" fill="white"/>
</clipPath>
</defs>
</svg>
